<?xml version="1.0" encoding="UTF-8" standalone="no"?>
<!-- Created with Inkscape (http://www.inkscape.org/) -->

<svg
   xmlns:dc="http://purl.org/dc/elements/1.1/"
   xmlns:cc="http://creativecommons.org/ns#"
   xmlns:rdf="http://www.w3.org/1999/02/22-rdf-syntax-ns#"
   xmlns:svg="http://www.w3.org/2000/svg"
   xmlns="http://www.w3.org/2000/svg"
   xmlns:sodipodi="http://sodipodi.sourceforge.net/DTD/sodipodi-0.dtd"
   xmlns:inkscape="http://www.inkscape.org/namespaces/inkscape"
   width="50"
   height="75"
   id="svg2"
   version="1.1"
   inkscape:version="0.48.5 r10040"
   inkscape:export-filename="/home/luisaugusto/Projetos/Bomberman/recursos/jogo/bombermanDireitaDireita.png"
   inkscape:export-xdpi="90"
   inkscape:export-ydpi="90"
   sodipodi:docname="bombermanDireitaDireita.svg">
  <defs
     id="defs4" />
  <sodipodi:namedview
     id="base"
     pagecolor="#ffffff"
     bordercolor="#666666"
     borderopacity="1.0"
     inkscape:pageopacity="0.0"
     inkscape:pageshadow="2"
     inkscape:zoom="5.0709658"
     inkscape:cx="24.542068"
     inkscape:cy="35.207495"
     inkscape:document-units="px"
     inkscape:current-layer="layer1"
     showgrid="false"
     showguides="true"
     inkscape:guide-bbox="true"
     inkscape:window-width="1366"
     inkscape:window-height="700"
     inkscape:window-x="0"
     inkscape:window-y="29"
     inkscape:window-maximized="1">
    <sodipodi:guide
       orientation="0,1"
       position="36.580803,6.7048372"
       id="guide4035" />
  </sodipodi:namedview>
  <metadata
     id="metadata7">
    <rdf:RDF>
      <cc:Work
         rdf:about="">
        <dc:format>image/svg+xml</dc:format>
        <dc:type
           rdf:resource="http://purl.org/dc/dcmitype/StillImage" />
        <dc:title></dc:title>
      </cc:Work>
    </rdf:RDF>
  </metadata>
  <g
     inkscape:label="Camada 1"
     inkscape:groupmode="layer"
     id="layer1"
     transform="translate(0,-977.36218)">
    <g
       id="g3008"
       transform="translate(0,-1.0000128)">
      <rect
         inkscape:export-ydpi="90"
         inkscape:export-xdpi="90"
         transform="scale(-1,1)"
         ry="1.9618965"
         y="1027.4525"
         x="-31.205803"
         height="5.5487986"
         width="12.22532"
         id="rect2989-0-0-1-3-6-2"
         style="fill:#800000;fill-opacity:1;stroke:#1a1a1a;stroke-width:0.9717592;stroke-opacity:1" />
      <rect
         transform="matrix(0,1,-1,0,0,0)"
         ry="10.895916"
         y="-40.408367"
         x="990.26111"
         height="30.816732"
         width="39.043823"
         id="rect2989-0-7"
         style="fill:#003380;fill-opacity:1;stroke:#1a1a1a;stroke-width:1;stroke-opacity:1" />
      <path
         id="rect2989-71"
         d="m 16.375,984.00134 c -6.036337,0 -10.9062501,4.8387 -10.9062501,10.875 l 0,9.03146 c 0,6.0363 4.8699131,10.9062 10.9062501,10.9062 l 17.25,0 c 0.266438,0 0.488464,-0.1376 0.75,-0.1562 l -7.53125,0 c -0.8975,0 -1.755455,-0.173 -2.53125,-0.5 -0.775795,-0.3271 -1.476857,-0.8206 -2.0625,-1.4063 -0.585643,-0.5856 -1.047955,-1.2867 -1.375,-2.0625 -0.327045,-0.7758 -0.53125,-1.6025 -0.53125,-2.5 l 0,-5.375 c 0,-0.8975 0.204205,-1.7554 0.53125,-2.5312 0.327045,-0.77587 0.789357,-1.47693 1.375,-2.06261 0.585643,-0.58575 1.286705,-1.04805 2.0625,-1.37505 0.775795,-0.3271 1.63375,-0.5313 2.53125,-0.5313 l 16.3125,0 c 0.487009,0 0.919218,0.1804 1.375,0.2813 l 0,-1.7188 c 0,-6.0363 -4.869913,-10.875 -10.90625,-10.875 l -17.25,0 z"
         style="fill:#ffffff;fill-opacity:1;stroke:#1a1a1a;stroke-width:2;stroke-miterlimit:4;stroke-opacity:1;stroke-dasharray:none"
         inkscape:connector-curvature="0" />
      <path
         sodipodi:nodetypes="cc"
         inkscape:connector-curvature="0"
         id="path3994-1"
         d="m 10.184871,1021.9146 c 9.875431,5e-4 25.10623,2.6787 29.623319,0"
         style="fill:none;stroke:#1a1a1a;stroke-width:2;stroke-linecap:butt;stroke-linejoin:round;stroke-miterlimit:4;stroke-opacity:1;stroke-dasharray:none" />
      <rect
         ry="1.0458168"
         y="1020.5636"
         x="37.220585"
         height="3.1552174"
         width="3.7217512"
         id="rect3996-1"
         style="fill:#1a1a1a;fill-opacity:1;stroke:#1a1a1a;stroke-width:1.62042928;stroke-linejoin:round;stroke-miterlimit:4;stroke-opacity:1;stroke-dasharray:none" />
      <rect
         ry="0.60496348"
         y="1021.2533"
         x="38.280518"
         height="1.825168"
         width="2.6305206"
         id="rect3996-3-5"
         style="fill:#ffff00;fill-opacity:1;stroke:#ffff00;stroke-width:1.03612959;stroke-linejoin:round;stroke-miterlimit:4;stroke-opacity:1;stroke-dasharray:none" />
      <rect
         transform="scale(-1,1)"
         ry="1.9618965"
         y="1028.3275"
         x="-34.557976"
         height="5.5487986"
         width="12.22532"
         id="rect2989-0-0-1-3-6-0"
         style="fill:#800000;fill-opacity:1;stroke:#1a1a1a;stroke-width:0.9717592;stroke-opacity:1" />
      <rect
         transform="matrix(-0.25224383,0.96766371,0.96766371,0.25224383,0,0)"
         ry="2.6623504"
         y="277.48685"
         x="976.52332"
         height="7.52988"
         width="9.5401192"
         id="rect2989-0-0-1-6"
         style="fill:#ffffff;fill-opacity:1;stroke:#1a1a1a;stroke-width:1;stroke-opacity:1" />
      <path
         transform="matrix(-0.4118674,-0.10736272,-0.10736272,0.4118674,36.776702,1024.4688)"
         d="m 36.394423,9.4521914 c 0,4.1201326 -3.340028,7.4601596 -7.46016,7.4601596 -4.120132,0 -7.460159,-3.340027 -7.460159,-7.4601596 0,-4.1201323 3.340027,-7.4601593 7.460159,-7.4601593 4.120132,0 7.46016,3.340027 7.46016,7.4601593 z"
         sodipodi:ry="7.4601593"
         sodipodi:rx="7.4601593"
         sodipodi:cy="9.4521914"
         sodipodi:cx="28.934263"
         id="path3761-6-3-4"
         style="fill:#800000;fill-opacity:1;stroke:#1a1a1a;stroke-width:2.3494544;stroke-miterlimit:4;stroke-opacity:1;stroke-dasharray:none"
         sodipodi:type="arc" />
      <path
         inkscape:connector-curvature="0"
         id="path3007"
         d="m 44.994699,995.97824 c -0.483374,-0.1071 -0.941751,-0.2983 -1.458242,-0.2983 l -17.300078,0 c -0.951836,0 -1.861731,0.2166 -2.684496,0.5632 -0.822762,0.347 -1.566265,0.8373 -2.187365,1.4584 -0.621099,0.62119 -1.111398,1.36468 -1.458242,2.18741 -0.346845,0.82295 -0.563414,1.73295 -0.563414,2.68455 l 0,5.7005 c 0,0.9519 0.216569,1.8286 0.563414,2.6514 0.346844,0.8228 0.837143,1.5661 1.458242,2.1874 0.6211,0.6211 1.364603,1.1444 2.187365,1.4913 0.822765,0.3469 1.73266,0.5302 2.684496,0.5302 l 7.9872,0 c 6.006633,-0.4276 10.77112,-5.2815 10.77112,-11.4008 l 0,-7.75526 z"
         style="fill:#ffccaa;fill-opacity:1;stroke:#1a1a1a;stroke-width:1.06054115;stroke-miterlimit:4;stroke-opacity:1;stroke-dasharray:none" />
      <rect
         ry="2.3990409"
         y="997.81543"
         x="39.329182"
         height="11.434263"
         width="2.0916333"
         id="rect3948-8-1"
         style="fill:#1a1a1a;fill-opacity:1;stroke:none" />
      <path
         transform="matrix(0.84112149,0,0,0.84112149,-16.215405,977.33856)"
         d="m 36.394423,9.4521914 c 0,4.1201326 -3.340028,7.4601596 -7.46016,7.4601596 -4.120132,0 -7.460159,-3.340027 -7.460159,-7.4601596 0,-4.1201323 3.340027,-7.4601593 7.460159,-7.4601593 4.120132,0 7.46016,3.340027 7.46016,7.4601593 z"
         sodipodi:ry="7.4601593"
         sodipodi:rx="7.4601593"
         sodipodi:cy="9.4521914"
         sodipodi:cx="28.934263"
         id="path3761-3"
         style="fill:#800000;fill-opacity:1;stroke:#1a1a1a;stroke-width:1.18888891;stroke-miterlimit:4;stroke-opacity:1;stroke-dasharray:none"
         sodipodi:type="arc" />
    </g>
  </g>
</svg>
