<?xml version="1.0" encoding="UTF-8" standalone="no"?>
<!-- Created with Inkscape (http://www.inkscape.org/) -->

<svg
   xmlns:dc="http://purl.org/dc/elements/1.1/"
   xmlns:cc="http://creativecommons.org/ns#"
   xmlns:rdf="http://www.w3.org/1999/02/22-rdf-syntax-ns#"
   xmlns:svg="http://www.w3.org/2000/svg"
   xmlns="http://www.w3.org/2000/svg"
   xmlns:sodipodi="http://sodipodi.sourceforge.net/DTD/sodipodi-0.dtd"
   xmlns:inkscape="http://www.inkscape.org/namespaces/inkscape"
   width="50"
   height="75"
   id="svg2"
   version="1.1"
   inkscape:version="0.48.5 r10040"
   inkscape:export-filename="/home/luisaugusto/Projetos/Bomberman/recursos/jogo/bombermanFrenteDireita.png"
   inkscape:export-xdpi="90"
   inkscape:export-ydpi="90"
   sodipodi:docname="bombermanFrenteDireita.svg">
  <defs
     id="defs4" />
  <sodipodi:namedview
     id="base"
     pagecolor="#ffffff"
     bordercolor="#666666"
     borderopacity="1.0"
     inkscape:pageopacity="0.0"
     inkscape:pageshadow="2"
     inkscape:zoom="3.5857143"
     inkscape:cx="16.96253"
     inkscape:cy="31.216183"
     inkscape:document-units="px"
     inkscape:current-layer="layer1"
     showgrid="false"
     showguides="true"
     inkscape:guide-bbox="true"
     inkscape:window-width="1366"
     inkscape:window-height="700"
     inkscape:window-x="0"
     inkscape:window-y="29"
     inkscape:window-maximized="1">
    <sodipodi:guide
       orientation="0,1"
       position="36.580803,6.7048372"
       id="guide4035" />
  </sodipodi:namedview>
  <metadata
     id="metadata7">
    <rdf:RDF>
      <cc:Work
         rdf:about="">
        <dc:format>image/svg+xml</dc:format>
        <dc:type
           rdf:resource="http://purl.org/dc/dcmitype/StillImage" />
        <dc:title></dc:title>
      </cc:Work>
    </rdf:RDF>
  </metadata>
  <g
     inkscape:label="Camada 1"
     inkscape:groupmode="layer"
     id="layer1"
     transform="translate(0,-977.36218)">
    <g
       id="g3000"
       transform="translate(1.0901367e-7,-13.518523)">
      <rect
         transform="matrix(0,1,-1,0,0,0)"
         ry="2.6623504"
         y="-44.626495"
         x="1025.1312"
         height="7.52988"
         width="9.5401192"
         id="rect2989-0-0-1"
         style="fill:#ffffff;fill-opacity:1;stroke:#1a1a1a;stroke-opacity:1" />
      <rect
         transform="matrix(0,1,-1,0,0,0)"
         ry="2.6623504"
         y="-12.903386"
         x="1025.1312"
         height="7.52988"
         width="9.5401192"
         id="rect2989-0-0"
         style="fill:#ffffff;fill-opacity:1;stroke:#1a1a1a;stroke-opacity:1" />
      <g
         transform="matrix(-1,0,0,1,49.657372,0.68665291)"
         id="g3934">
        <rect
           style="fill:#800000;fill-opacity:1;stroke:#1a1a1a;stroke-opacity:1"
           id="rect2989-0-0-1-3-6"
           width="9.5401192"
           height="7.52988"
           x="1040.1539"
           y="-33.139442"
           ry="2.6623504"
           transform="matrix(0,1,-1,0,0,0)" />
        <rect
           style="fill:#800000;fill-opacity:1;stroke:#1a1a1a;stroke-opacity:1"
           id="rect2989-0-0-1-3"
           width="9.5401192"
           height="7.52988"
           x="1038.6677"
           y="-23.705181"
           ry="2.6623504"
           transform="matrix(0,1,-1,0,0,0)" />
      </g>
      <path
         transform="matrix(0.42563072,0,0,0.42563072,-4.6758688,1031.456)"
         d="m 36.394423,9.4521914 c 0,4.1201326 -3.340028,7.4601596 -7.46016,7.4601596 -4.120132,0 -7.460159,-3.340027 -7.460159,-7.4601596 0,-4.1201323 3.340027,-7.4601593 7.460159,-7.4601593 4.120132,0 7.46016,3.340027 7.46016,7.4601593 z"
         sodipodi:ry="7.4601593"
         sodipodi:rx="7.4601593"
         sodipodi:cy="9.4521914"
         sodipodi:cx="28.934263"
         id="path3761-6"
         style="fill:#800000;fill-opacity:1;stroke:#1a1a1a;stroke-width:2.3494544;stroke-miterlimit:4;stroke-opacity:1;stroke-dasharray:none"
         sodipodi:type="arc" />
      <rect
         transform="matrix(0,1,-1,0,0,0)"
         ry="10.895916"
         y="-40.408367"
         x="1007.5907"
         height="30.816732"
         width="39.043823"
         id="rect2989-0"
         style="fill:#003380;fill-opacity:1;stroke:#1a1a1a;stroke-opacity:1" />
      <rect
         ry="10.895916"
         y="1001.3158"
         x="5.4780884"
         height="30.816732"
         width="39.043823"
         id="rect2989"
         style="fill:#ffffff;fill-opacity:1;stroke:#1a1a1a;stroke-width:2;stroke-miterlimit:4;stroke-opacity:1;stroke-dasharray:none" />
      <path
         transform="matrix(0.84112149,0,0,0.84112149,0.66276961,992.66812)"
         d="m 36.394423,9.4521914 c 0,4.1201326 -3.340028,7.4601596 -7.46016,7.4601596 -4.120132,0 -7.460159,-3.340027 -7.460159,-7.4601596 0,-4.1201323 3.340027,-7.4601593 7.460159,-7.4601593 4.120132,0 7.46016,3.340027 7.46016,7.4601593 z"
         sodipodi:ry="7.4601593"
         sodipodi:rx="7.4601593"
         sodipodi:cy="9.4521914"
         sodipodi:cx="28.934263"
         id="path3761"
         style="fill:#800000;fill-opacity:1;stroke:#1a1a1a;stroke-width:1.18888891;stroke-miterlimit:4;stroke-opacity:1;stroke-dasharray:none"
         sodipodi:type="arc" />
      <rect
         ry="6.4801469"
         y="1013.6562"
         x="10.358566"
         height="18.327688"
         width="29.282867"
         id="rect2989-7"
         style="fill:#ffccaa;fill-opacity:1;stroke:#1a1a1a;stroke-width:1;stroke-miterlimit:4;stroke-opacity:1;stroke-dasharray:none" />
      <g
         transform="translate(-0.27390292,2.0810752)"
         id="g3986">
        <rect
           style="fill:#1a1a1a;fill-opacity:1;stroke:none"
           id="rect3948"
           width="2.0916333"
           height="11.434263"
           x="18.685257"
           y="1017.6411"
           ry="2.3990409" />
        <rect
           style="fill:#1a1a1a;fill-opacity:1;stroke:none"
           id="rect3948-0"
           width="2.0916333"
           height="11.434263"
           x="29.770916"
           y="1017.3621"
           ry="2.3990409" />
      </g>
      <path
         sodipodi:nodetypes="cc"
         inkscape:connector-curvature="0"
         id="path3994"
         d="m 10.184871,1039.244 c 9.615352,1.3918 19.454677,1.5805 29.623319,0"
         style="fill:none;stroke:#1a1a1a;stroke-width:2;stroke-linecap:butt;stroke-linejoin:round;stroke-miterlimit:4;stroke-opacity:1;stroke-dasharray:none" />
      <rect
         ry="1.0458168"
         y="1038.7996"
         x="22.165234"
         height="3.1552174"
         width="5.6695313"
         id="rect3996"
         style="fill:#1a1a1a;fill-opacity:1;stroke:#1a1a1a;stroke-width:2;stroke-linejoin:round;stroke-miterlimit:4;stroke-opacity:1;stroke-dasharray:none" />
      <rect
         ry="0.60496348"
         y="1039.9772"
         x="23.360201"
         height="1.825168"
         width="3.2795987"
         id="rect3996-3"
         style="fill:#ffff00;fill-opacity:1;stroke:#ffff00;stroke-width:1.15692055;stroke-linejoin:round;stroke-miterlimit:4;stroke-opacity:1;stroke-dasharray:none" />
      <path
         transform="matrix(0.42563072,0,0,0.42563072,30.045246,1031.177)"
         d="m 36.394423,9.4521914 c 0,4.1201326 -3.340028,7.4601596 -7.46016,7.4601596 -4.120132,0 -7.460159,-3.340027 -7.460159,-7.4601596 0,-4.1201323 3.340027,-7.4601593 7.460159,-7.4601593 4.120132,0 7.46016,3.340027 7.46016,7.4601593 z"
         sodipodi:ry="7.4601593"
         sodipodi:rx="7.4601593"
         sodipodi:cy="9.4521914"
         sodipodi:cx="28.934263"
         id="path3761-6-3"
         style="fill:#800000;fill-opacity:1;stroke:#1a1a1a;stroke-width:2.3494544;stroke-miterlimit:4;stroke-opacity:1;stroke-dasharray:none"
         sodipodi:type="arc" />
    </g>
  </g>
</svg>
